<svg
  width="300"
  height="60"
  viewBox="0 0 320 80"
  fill="none"
  xmlns="http://www.w3.org/2000/svg"
>
<path
    d="M10.1187 48.6281C10.1187 36.9143 19.645 27.3842 31.354 27.3842C31.38 27.3842 31.4112 27.3894 31.4424 27.3894L31.4424 38.8068L51.4771 24.5974C46.0462 20.0429 39.0613 17.2873 31.4476 17.2613L31.4424 17.2561V17.2613C31.4112 17.2561 31.38 17.2561 31.354 17.2561C14.0685 17.2613 0 31.3355 0 48.6281C0 56.3593 2.81682 63.4458 7.47341 68.9153L15.8043 63.0454C12.2859 59.25 10.1187 54.1912 10.1187 48.6281Z"
    fill="black"
  />
<path
    d="M55.1878 28.2836L46.8621 34.1639C50.4013 37.9593 52.5893 43.0389 52.5893 48.6333C52.5893 60.3471 43.063 69.8772 31.354 69.8772C31.2864 69.8772 31.2189 69.872 31.1513 69.872V58.4545L11.1685 72.612C16.5787 77.1717 23.5428 79.9376 31.1409 79.9896L31.1513 80V79.9896C31.2189 79.9896 31.2864 80 31.354 80C48.6447 80 62.708 65.931 62.708 48.6333C62.708 40.8657 59.8756 33.7636 55.1878 28.2836Z"
    fill="black"
  />
<path
    d="M60.0107 11.5994C58.7218 11.5994 57.6772 12.6444 57.6772 13.9338C57.6772 14.1418 57.7136 14.3342 57.7604 14.5214L50.1259 14.9009L50.2506 4.63768C51.394 4.4921 52.2878 3.52505 52.2878 2.33444C52.2878 1.04504 51.2432 0 49.9544 0C48.6603 0 47.6209 1.04504 47.6209 2.33444C47.6209 2.79717 47.7612 3.2235 47.9899 3.58744L39.7109 10.1696L35.1583 4.60649C36.2029 4.37252 36.9824 3.44707 36.9824 2.33444C36.9824 1.04504 35.9378 0 34.6489 0C33.3601 0 32.3155 1.04504 32.3155 2.33444C32.3155 3.42107 33.0638 4.33093 34.0721 4.58569L31.1305 13.3775C47.2623 13.3775 53.9873 23.1416 53.9873 23.1416L58.358 15.582C58.7842 16.0083 59.3663 16.2735 60.0107 16.2735C61.2996 16.2735 62.3442 15.2284 62.3442 13.9338C62.3442 12.6444 61.2996 11.5994 60.0107 11.5994Z"
    fill="black"
  />
<path
    d="M109.237 59.1305V68.0679H108.26V67.2152H100.803V68.0939H99.8568V59.1305H109.237ZM108.26 66.3105V60.0403H100.803V66.3105H108.26Z"
    fill="black"
  />
<path
    d="M119.803 62.4631H131.107V63.425H120.318C120.235 63.5602 120.058 63.6537 119.886 63.6849L119.803 62.4631Z"
    fill="black"
  />
<path
    d="M141.906 64.7664V58.1842L143.19 58.2674C143.174 58.387 143.081 58.4857 142.868 58.5117V64.7664H141.906ZM149.447 57.6539C149.432 57.789 149.338 57.8566 149.125 57.8826V62.1876C149.125 65.0315 148.148 67.6311 144.266 69.1337C144.131 68.9309 143.793 68.5774 143.564 68.4006C147.311 67.0072 148.153 64.6884 148.153 62.1824V57.5655L149.447 57.6539Z"
    fill="black"
  />
<path
    d="M160.382 58.3714C161.79 58.8185 163.412 59.5204 164.415 60.2119L163.9 61.0645C162.923 60.3731 161.328 59.6556 159.945 59.1824L160.382 58.3714ZM160.33 67.7559C165.137 66.2637 168.328 63.5706 169.955 59.8219C170.241 60.0507 170.553 60.2275 170.833 60.3783C169.139 64.0905 165.839 66.9708 161.25 68.5046C161.234 68.6242 161.156 68.7646 161.063 68.8165L160.33 67.7559Z"
    fill="black"
  />
<path
    d="M189.605 59.9727C189.553 60.0559 189.486 60.1235 189.403 60.1755C187.968 64.6572 185.749 67.366 182.08 69.2325C181.929 69.0037 181.659 68.6918 181.389 68.489C184.865 66.7941 187.048 64.1945 188.197 60.5134H183.421C182.636 61.7301 181.633 62.8687 180.427 63.8201C180.25 63.6278 179.928 63.373 179.668 63.2118C181.508 61.8288 183.041 59.692 183.961 57.2795L185.234 57.6331C185.193 57.7683 185.032 57.8255 184.855 57.8099C184.585 58.4182 184.273 59.0681 183.961 59.6088H188.67L188.831 59.5256L189.605 59.9727ZM187.927 56.8532C188.561 57.3679 189.309 58.1946 189.699 58.7769L189.2 59.2084C188.794 58.5845 188.062 57.7891 187.454 57.2847L187.927 56.8532ZM189.891 56.4633C190.525 56.978 191.273 57.7891 191.663 58.387L191.164 58.8081C190.759 58.1998 190.052 57.4147 189.418 56.9L189.891 56.4633Z"
    fill="black"
  />
<path
    d="M203.939 63.1806C203.939 63.9501 203.315 64.574 202.546 64.574C201.777 64.574 201.153 63.9501 201.153 63.1806C201.153 62.4111 201.777 61.7872 202.546 61.7872C203.341 61.7872 203.939 62.4371 203.939 63.1806Z"
    fill="black"
  />
<path
    d="M224.254 59.9727C224.202 60.0559 224.135 60.1235 224.052 60.1755C222.617 64.6572 220.398 67.366 216.729 69.2325C216.578 69.0037 216.308 68.6918 216.038 68.489C219.514 66.7941 221.697 64.1945 222.846 60.5134H218.07C217.285 61.7301 216.282 62.8687 215.076 63.8201C214.899 63.6278 214.577 63.373 214.317 63.2118C216.157 61.8288 217.69 59.692 218.61 57.2795L219.883 57.6331C219.842 57.7683 219.681 57.8255 219.504 57.8099C219.234 58.4182 218.922 59.0681 218.61 59.6088H223.319L223.48 59.5256L224.254 59.9727ZM222.576 56.8532C223.21 57.3679 223.958 58.1946 224.348 58.7769L223.849 59.2084C223.443 58.5845 222.711 57.7891 222.103 57.2847L222.576 56.8532ZM224.535 56.4633C225.169 56.978 225.917 57.7891 226.307 58.387L225.808 58.8081C225.403 58.1998 224.696 57.4147 224.062 56.9L224.535 56.4633Z"
    fill="black"
  />
<path
    d="M245.391 59.1305V68.0679H244.414V67.2152H236.956V68.0939H236.01V59.1305H245.391ZM244.419 66.3105V60.0403H236.961V66.3105H244.419Z"
    fill="black"
  />
<path
    d="M255.962 62.4631H267.265V63.425H256.476C256.393 63.5602 256.216 63.6537 256.045 63.6849L255.962 62.4631Z"
    fill="black"
  />
<path
    d="M278.065 64.7664V58.1842L279.348 58.2674C279.333 58.387 279.239 58.4857 279.026 58.5117V64.7664H278.065ZM285.606 57.6539C285.59 57.789 285.497 57.8566 285.284 57.8826V62.1876C285.284 65.0315 284.306 67.6311 280.424 69.1337C280.289 68.9309 279.951 68.5774 279.723 68.4006C283.475 67.0072 284.312 64.6884 284.312 62.1824V57.5655L285.606 57.6539Z"
    fill="black"
  />
<path
    d="M296.021 62.4631H307.324V63.425H296.535C296.452 63.5602 296.281 63.6537 296.104 63.6849L296.021 62.4631Z"
    fill="black"
  />
<path
    d="M86.4639 32.3494H93.2876C95.1846 32.3494 96.6554 32.8849 97.6376 33.8624C98.4691 34.6942 98.9161 35.8693 98.9161 37.273V37.3146C98.9161 39.7271 97.6168 41.24 95.7199 41.9419L99.3682 47.2763H95.5276L92.3314 42.4982H89.7536V47.2763H86.4691V32.3494H86.4639ZM93.0746 39.6023C94.6753 39.6023 95.5899 38.7496 95.5899 37.4914V37.4498C95.5899 36.0408 94.6077 35.3181 93.0122 35.3181H89.7484V39.6075H93.0746V39.6023Z"
    fill="black"
  />
<path
    d="M105.485 39.857V39.8154C105.485 35.5677 108.832 32.0946 113.437 32.0946C118.041 32.0946 121.347 35.5313 121.347 39.7738V39.8154C121.347 44.0632 118 47.5362 113.395 47.5362C108.791 47.5362 105.485 44.0996 105.485 39.857ZM117.917 39.857V39.8154C117.917 37.2574 116.04 35.1206 113.395 35.1206C110.75 35.1206 108.915 37.2106 108.915 39.7686V39.8102C108.915 42.3682 110.791 44.5051 113.437 44.5051C116.082 44.5051 117.917 42.415 117.917 39.857Z"
    fill="black"
  />
<path
    d="M128.539 32.3494H131.824V44.2971H139.266V47.2815H128.539V32.3494Z"
    fill="black"
  />
<path
    d="M146.002 32.3494H149.286V44.2971H156.728V47.2815H146.002V32.3494Z"
    fill="black"
  />
<path d="M163.615 32.3494H166.899V47.2815H163.615V32.3494Z" fill="black" />
<path
    d="M174.897 32.3494H177.927L184.923 41.5416V32.3494H188.166V47.2815H185.37L178.14 37.7878V47.2815H174.897V32.3494Z"
    fill="black"
  />
<path
    d="M195.348 39.857V39.8154C195.348 35.5677 198.653 32.0946 203.175 32.0946C205.862 32.0946 207.483 32.8173 209.037 34.1431L206.969 36.6387C205.815 35.6769 204.796 35.1258 203.066 35.1258C200.68 35.1258 198.778 37.2366 198.778 39.7738V39.8154C198.778 42.545 200.654 44.5519 203.299 44.5519C204.495 44.5519 205.56 44.2556 206.392 43.6576V41.526H203.086V38.682H209.567V45.1654C208.034 46.4652 205.919 47.531 203.19 47.531C198.544 47.5362 195.348 44.2712 195.348 39.857Z"
    fill="black"
  />
<path
    d="M226.988 39.857V39.8154C226.988 35.5677 230.293 32.0946 234.815 32.0946C237.502 32.0946 239.123 32.8173 240.677 34.1431L238.609 36.6387C237.46 35.6769 236.436 35.1258 234.706 35.1258C232.32 35.1258 230.418 37.2366 230.418 39.7738V39.8154C230.418 42.545 232.294 44.5519 234.939 44.5519C236.135 44.5519 237.2 44.2556 238.032 43.6576V41.526H234.726V38.682H241.207V45.1654C239.674 46.4652 237.559 47.531 234.83 47.531C230.189 47.5362 226.988 44.2712 226.988 39.857Z"
    fill="black"
  />
<path
    d="M248.634 32.3494H251.918V44.2971H259.36V47.2815H248.634V32.3494Z"
    fill="black"
  />
<path
    d="M264.583 39.857V39.8154C264.583 35.5677 267.93 32.0946 272.535 32.0946C277.14 32.0946 280.445 35.5313 280.445 39.7738V39.8154C280.445 44.0632 277.098 47.5362 272.493 47.5362C267.889 47.5362 264.583 44.0996 264.583 39.857ZM277.015 39.857V39.8154C277.015 37.2574 275.139 35.1206 272.493 35.1206C269.848 35.1206 268.014 37.2106 268.014 39.7686V39.8102C268.014 42.3682 269.89 44.5051 272.535 44.5051C275.18 44.5051 277.015 42.415 277.015 39.857Z"
    fill="black"
  />
<path
    d="M287.638 32.3494H294.462C296.358 32.3494 297.829 32.8849 298.811 33.8624C299.643 34.6942 300.09 35.8693 300.09 37.273V37.3146C300.09 39.7271 298.791 41.24 296.894 41.9419L300.542 47.2763H296.701L293.505 42.4982H290.927V47.2763H287.643V32.3494H287.638ZM294.243 39.6023C295.844 39.6023 296.759 38.7496 296.759 37.4914V37.4498C296.759 36.0408 295.776 35.3181 294.181 35.3181H290.917V39.6075H294.243V39.6023Z"
    fill="black"
  />
<path
    d="M310.983 41.3908L305.246 32.3442H309.086L312.646 38.3389L316.269 32.3442L320 32.3442L314.268 41.3284V47.2815H310.983V41.3908Z"
    fill="black"
  />
</svg>
