<svg
  width="220"
  height="40"
  viewBox="0 0 240 60"
  fill="none"
  xmlns="http://www.w3.org/2000/svg"
>
<path
    d="M7.58904 36.4711C7.58904 27.6857 14.7337 20.5381 23.5155 20.5381C23.535 20.5381 23.5584 20.542 23.5818 20.542V29.1051L38.6078 18.448C34.5346 15.0322 29.296 12.9655 23.5857 12.946L23.5818 12.9421V12.946C23.5584 12.9421 23.535 12.9421 23.5155 12.9421C10.5514 12.946 0 23.5017 0 36.4711C0 42.2695 2.11261 47.5843 5.60505 51.6865L11.8532 47.2841C9.21443 44.4375 7.58904 40.6434 7.58904 36.4711Z"
    fill="black"
  />
<path
    d="M41.3909 21.2127L35.1466 25.6229C37.801 28.4695 39.4419 32.2792 39.4419 36.4749C39.4419 45.2603 32.2973 52.4079 23.5155 52.4079C23.4648 52.4079 23.4141 52.404 23.3635 52.404V43.8409L8.37638 54.459C12.434 57.8787 17.6571 59.9532 23.3557 59.9922L23.3635 60V59.9922C23.4141 59.9922 23.4648 60 23.5155 60C36.4835 60 47.031 49.4482 47.031 36.4749C47.031 30.6493 44.9067 25.3227 41.3909 21.2127Z"
    fill="black"
  />
<path
    d="M45.008 8.69955C44.0414 8.69955 43.2579 9.48333 43.2579 10.4504C43.2579 10.6064 43.2852 10.7506 43.3203 10.891L37.5944 11.1757L37.6879 3.47826C38.5455 3.36908 39.2159 2.64379 39.2159 1.75083C39.2159 0.783779 38.4324 0 37.4658 0C36.4952 0 35.7156 0.783779 35.7156 1.75083C35.7156 2.09788 35.8209 2.41763 35.9924 2.69058L29.7832 7.62722L26.3687 3.45486C27.1522 3.27939 27.7368 2.5853 27.7368 1.75083C27.7368 0.783779 26.9534 0 25.9867 0C25.02 0 24.2366 0.783779 24.2366 1.75083C24.2366 2.5658 24.7979 3.2482 25.554 3.43927L23.3479 10.0331C35.4467 10.0331 40.4905 17.3562 40.4905 17.3562L43.7685 11.6865C44.0882 12.0062 44.5247 12.2051 45.008 12.2051C45.9747 12.2051 46.7582 11.4213 46.7582 10.4504C46.7582 9.48333 45.9747 8.69955 45.008 8.69955Z"
    fill="black"
  />
<path
    d="M81.9281 44.3478V51.0509H81.1953V50.4114H75.602V51.0704H74.8926V44.3478H81.9281ZM81.1953 49.7329V45.0302H75.602V49.7329H81.1953Z"
    fill="black"
  />
<path
    d="M89.8524 46.8473H98.3301V47.5687H90.2383C90.1759 47.6701 90.0434 47.7403 89.9147 47.7637L89.8524 46.8473Z"
    fill="black"
  />
<path
    d="M106.43 48.5748V43.6381L107.393 43.7005C107.381 43.7902 107.311 43.8643 107.151 43.8838V48.5748H106.43ZM112.085 43.2404C112.074 43.3418 112.004 43.3925 111.844 43.412V46.6407C111.844 48.7737 111.111 50.7233 108.199 51.8503C108.098 51.6982 107.845 51.433 107.673 51.3005C110.483 50.2554 111.115 48.5163 111.115 46.6368V43.1741L112.085 43.2404Z"
    fill="black"
  />
<path
    d="M120.286 43.7785C121.343 44.1139 122.559 44.6403 123.311 45.1589L122.925 45.7984C122.193 45.2798 120.996 44.7417 119.959 44.3868L120.286 43.7785ZM120.248 50.8169C123.853 49.6978 126.246 47.6779 127.466 44.8665C127.681 45.038 127.915 45.1706 128.125 45.2837C126.854 48.0679 124.379 50.2281 120.937 51.3784C120.926 51.4681 120.867 51.5734 120.797 51.6124L120.248 50.8169Z"
    fill="black"
  />
<path
    d="M142.204 44.9795C142.165 45.0419 142.114 45.0926 142.052 45.1316C140.976 48.4929 139.312 50.5245 136.56 51.9244C136.447 51.7528 136.244 51.5188 136.041 51.3668C138.649 50.0956 140.286 48.1459 141.148 45.3851H137.565C136.977 46.2975 136.225 47.1515 135.32 47.8651C135.188 47.7208 134.946 47.5297 134.751 47.4089C136.131 46.3716 137.281 44.769 137.971 42.9596L138.926 43.2248C138.895 43.3262 138.774 43.3691 138.641 43.3574C138.439 43.8136 138.205 44.301 137.971 44.7066H141.502L141.623 44.6442L142.204 44.9795ZM140.945 42.6399C141.42 43.0259 141.982 43.646 142.274 44.0827L141.9 44.4063C141.596 43.9384 141.046 43.3418 140.59 42.9636L140.945 42.6399ZM142.418 42.3474C142.894 42.7335 143.455 43.3418 143.747 43.7902L143.373 44.1061C143.069 43.6498 142.539 43.061 142.064 42.675L142.418 42.3474Z"
    fill="black"
  />
<path
    d="M152.954 47.3855C152.954 47.9626 152.486 48.4305 151.909 48.4305C151.333 48.4305 150.865 47.9626 150.865 47.3855C150.865 46.8084 151.333 46.3404 151.909 46.3404C152.506 46.3404 152.954 46.8279 152.954 47.3855Z"
    fill="black"
  />
<path
    d="M168.191 44.9795C168.152 45.0419 168.101 45.0926 168.039 45.1316C166.963 48.4929 165.298 50.5245 162.547 51.9244C162.434 51.7528 162.231 51.5188 162.028 51.3668C164.636 50.0956 166.273 48.1459 167.134 45.3851H163.552C162.964 46.2975 162.211 47.1515 161.307 47.8651C161.175 47.7208 160.933 47.5297 160.738 47.4089C162.118 46.3716 163.268 44.769 163.958 42.9596L164.913 43.2248C164.881 43.3262 164.761 43.3691 164.628 43.3574C164.425 43.8136 164.191 44.301 163.958 44.7066H167.489L167.61 44.6442L168.191 44.9795ZM166.932 42.6399C167.407 43.0259 167.968 43.646 168.261 44.0827L167.887 44.4063C167.583 43.9384 167.033 43.3418 166.577 42.9636L166.932 42.6399ZM168.401 42.3474C168.877 42.7335 169.438 43.3418 169.73 43.7902L169.356 44.1061C169.052 43.6498 168.522 43.061 168.046 42.675L168.401 42.3474Z"
    fill="black"
  />
<path
    d="M184.043 44.3478V51.0509H183.31V50.4114H177.717V51.0704H177.007V44.3478H184.043ZM183.314 49.7329V45.0302H177.721V49.7329H183.314Z"
    fill="black"
  />
<path
    d="M191.971 46.8473L200.449 46.8473V47.5687H192.357C192.295 47.6701 192.162 47.7403 192.034 47.7637L191.971 46.8473Z"
    fill="black"
  />
<path
    d="M208.549 48.5748V43.6381L209.511 43.7005C209.5 43.7902 209.429 43.8643 209.27 43.8838V48.5748H208.549ZM214.204 43.2404C214.193 43.3418 214.122 43.3925 213.963 43.412V46.6407C213.963 48.7737 213.23 50.7233 210.318 51.8503C210.217 51.6982 209.963 51.433 209.792 51.3005C212.606 50.2554 213.234 48.5163 213.234 46.6368V43.1741L214.204 43.2404Z"
    fill="black"
  />
<path
    d="M222.016 46.8473H230.493V47.5687H222.401C222.339 47.6701 222.21 47.7403 222.078 47.7637L222.016 46.8473Z"
    fill="black"
  />
<path
    d="M64.8479 24.262H69.9657C71.3884 24.262 72.4915 24.6637 73.2282 25.3968C73.8519 26.0207 74.1871 26.9019 74.1871 27.9548V27.986C74.1871 29.7953 73.2126 30.93 71.7899 31.4564L74.5262 35.4572H71.6457L69.2486 31.8737H67.3152V35.4572H64.8518V24.262H64.8479ZM69.8059 29.7017C71.0064 29.7017 71.6925 29.0622 71.6925 28.1185V28.0874C71.6925 27.0306 70.9558 26.4886 69.7591 26.4886H67.3113V29.7056H69.8059V29.7017Z"
    fill="black"
  />
<path
    d="M79.1139 29.8928V29.8616C79.1139 26.6758 81.6241 24.071 85.0776 24.071C88.531 24.071 91.01 26.6485 91.01 29.8304V29.8616C91.01 33.0474 88.4998 35.6522 85.0464 35.6522C81.5929 35.6522 79.1139 33.0747 79.1139 29.8928ZM88.4375 29.8928V29.8616C88.4375 27.9431 87.0303 26.3404 85.0464 26.3404C83.0624 26.3404 81.6865 27.908 81.6865 29.8265V29.8577C81.6865 31.7762 83.0936 33.3788 85.0776 33.3788C87.0615 33.3788 88.4375 31.8113 88.4375 29.8928Z"
    fill="black"
  />
<path
    d="M96.4046 24.262H98.868V33.2229H104.45V35.4611H96.4046V24.262Z"
    fill="black"
  />
<path
    d="M109.501 24.262H111.965V33.2229H117.546V35.4611H109.501V24.262Z"
    fill="black"
  />
<path d="M122.711 24.262H125.174V35.4611H122.711V24.262Z" fill="black" />
<path
    d="M131.173 24.262H133.445L138.692 31.1562V24.262H141.124V35.4611H139.027L133.605 28.3408V35.4611H131.173V24.262Z"
    fill="black"
  />
<path
    d="M146.511 29.8928V29.8616C146.511 26.6758 148.99 24.071 152.381 24.071C154.396 24.071 155.612 24.613 156.778 25.6073L155.226 27.4791C154.361 26.7577 153.597 26.3443 152.299 26.3443C150.51 26.3443 149.084 27.9275 149.084 29.8304V29.8616C149.084 31.9088 150.491 33.4139 152.475 33.4139C153.371 33.4139 154.17 33.1917 154.794 32.7432V31.1445H152.315V29.0115H157.175V33.8741C156.026 34.8489 154.439 35.6483 152.393 35.6483C148.908 35.6522 146.511 33.2034 146.511 29.8928Z"
    fill="black"
  />
<path
    d="M170.241 29.8928V29.8616C170.241 26.6758 172.72 24.071 176.111 24.071C178.126 24.071 179.342 24.613 180.508 25.6073L178.956 27.4791C178.095 26.7577 177.327 26.3443 176.029 26.3443C174.24 26.3443 172.813 27.9275 172.813 29.8304V29.8616C172.813 31.9088 174.221 33.4139 176.205 33.4139C177.101 33.4139 177.9 33.1917 178.524 32.7432V31.1445H176.045V29.0115H180.905V33.8741C179.755 34.8489 178.169 35.6483 176.123 35.6483C172.642 35.6522 170.241 33.2034 170.241 29.8928Z"
    fill="black"
  />
<path
    d="M186.475 24.262H188.939V33.2229L194.52 33.2229V35.4611L186.475 35.4611V24.262Z"
    fill="black"
  />
<path
    d="M198.438 29.8928V29.8616C198.438 26.6758 200.948 24.071 204.401 24.071C207.855 24.071 210.334 26.6485 210.334 29.8304V29.8616C210.334 33.0474 207.824 35.6522 204.37 35.6522C200.917 35.6522 198.438 33.0747 198.438 29.8928ZM207.761 29.8928V29.8616C207.761 27.9431 206.354 26.3404 204.37 26.3404C202.386 26.3404 201.01 27.908 201.01 29.8265V29.8577C201.01 31.7762 202.417 33.3788 204.401 33.3788C206.385 33.3788 207.761 31.8113 207.761 29.8928Z"
    fill="black"
  />
<path
    d="M215.728 24.262H220.846C222.269 24.262 223.372 24.6637 224.109 25.3968C224.732 26.0207 225.067 26.9019 225.067 27.9548V27.986C225.067 29.7953 224.093 30.93 222.67 31.4564L225.407 35.4572H222.526L220.129 31.8737H218.196V35.4572H215.732V24.262H215.728ZM220.682 29.7017C221.883 29.7017 222.569 29.0622 222.569 28.1185V28.0874C222.569 27.0306 221.832 26.4886 220.636 26.4886H218.188V29.7056H220.682V29.7017Z"
    fill="black"
  />
<path
    d="M233.237 31.0431L228.934 24.2581H231.815L234.485 28.7541L237.201 24.2581H240L235.701 30.9963V35.4611H233.237V31.0431Z"
    fill="black"
  />
</svg>
