<svg
  width="26"
  height="26"
  viewBox="0 0 32 32"
  fill="none"
  xmlns="http://www.w3.org/2000/svg"
>
<rect width="32" height="32" rx="16" fill="white" />
<path
    d="M23.2 24.5714V22.5143C23.2 21.4231 22.8208 20.3766 22.1456 19.605C21.4705 18.8335 20.5548 18.4 19.6 18.4H12.4C11.4453 18.4 10.5296 18.8335 9.85446 19.605C9.17933 20.3766 8.80005 21.4231 8.80005 22.5143V24.5714"
    stroke="#4E96E5"
    stroke-width="2"
    stroke-linecap="round"
    stroke-linejoin="round"
  />
<path
    d="M15.9999 14.9714C18.0828 14.9714 19.7714 13.2829 19.7714 11.2C19.7714 9.11708 18.0828 7.42856 15.9999 7.42856C13.917 7.42856 12.2285 9.11708 12.2285 11.2C12.2285 13.2829 13.917 14.9714 15.9999 14.9714Z"
    stroke="#F77712"
    stroke-width="2"
    stroke-linecap="round"
    stroke-linejoin="round"
  />
</svg>
